<svg version="1.1" id="Layer_1" xmlns="http://www.w3.org/2000/svg" xmlns:xlink="http://www.w3.org/1999/xlink" x="0px" y="0px"
	 width="100%" viewBox="0 0 225 225" enable-background="new 0 0 225 225" xml:space="preserve">
<path fill="#0966FF" opacity="1.000000" stroke="none" 
	d="
M101.000000,1.000000 
	C108.687576,1.000000 116.375153,1.000000 124.733482,1.349504 
	C171.688492,6.533715 210.305283,39.686722 222.153198,84.817070 
	C223.560730,90.178497 224.723679,95.604126 226.000000,101.000000 
	C226.000000,109.354233 226.000000,117.708466 225.646881,126.702682 
	C221.143982,155.156677 209.218277,178.898499 187.995941,197.590469 
	C171.669022,211.970688 152.907196,221.404419 130.919754,224.072235 
	C129.816299,223.879074 128.920853,223.903351 127.829880,223.922821 
	C127.634361,223.918015 127.243401,223.930267 127.200912,223.467789 
	C127.192574,198.694595 127.226730,174.383896 127.464935,150.069748 
	C127.668999,150.066315 128.073715,150.013336 128.537750,150.010971 
	C136.610809,150.005600 144.222900,150.117157 151.826523,149.912979 
	C153.564667,149.866318 155.273575,148.730637 157.293427,147.842926 
	C159.709198,136.371170 161.827515,125.152664 164.062683,113.315231 
	C157.628967,113.315231 151.689285,113.315224 145.749603,113.315224 
	C139.666733,113.315224 133.583847,113.315231 126.837143,113.315231 
	C127.197556,106.302856 127.202316,99.997803 127.914299,93.773643 
	C129.061676,83.743156 134.567276,78.003639 144.572754,77.030785 
	C151.446854,76.362396 158.438461,76.902626 165.631073,76.902626 
	C165.631073,66.100052 165.631073,55.858803 165.631073,45.387760 
	C153.245529,42.448669 140.828003,41.700394 128.416504,43.298756 
	C104.888969,46.328648 92.097862,58.024593 87.959686,81.232178 
	C86.165985,91.291519 86.534081,101.736336 85.743225,112.163879 
	C85.346848,112.551003 85.150909,112.798828 84.520691,113.166702 
	C77.146126,113.268242 70.229256,113.268242 63.363377,113.268242 
	C63.363377,125.232414 63.363377,136.444839 63.363377,148.137665 
	C70.788666,148.137665 77.902138,148.137665 85.148506,148.298401 
	C85.474579,148.660904 85.687057,148.839752 86.004654,149.457703 
	C86.032982,173.614899 85.975487,197.310059 85.745819,221.149826 
	C85.356461,221.502899 85.163132,221.731522 84.604652,222.012527 
	C43.246731,209.828857 16.715599,183.250473 4.838943,142.149536 
	C3.393565,137.147583 2.271766,132.052124 1.000001,127.000000 
	C1.000000,118.312439 1.000000,109.624870 1.353191,100.297081 
	C2.066615,97.869797 2.423542,96.082069 2.787560,94.295784 
	C12.216297,48.027672 39.751793,18.343502 84.867310,4.859251 
	C90.156845,3.278300 95.618263,2.272454 101.000000,1.000000 
z"/>
<path fill="#FDFEFF" opacity="1.000000" stroke="none" 
	d="
M85.015617,148.137665 
	C77.902138,148.137665 70.788666,148.137665 63.363377,148.137665 
	C63.363377,136.444839 63.363377,125.232414 63.363377,113.268242 
	C70.229256,113.268242 77.146126,113.268242 84.825745,113.182648 
	C85.699081,112.733383 85.809662,112.369720 85.920250,112.006058 
	C86.534081,101.736336 86.165985,91.291519 87.959686,81.232178 
	C92.097862,58.024593 104.888969,46.328648 128.416504,43.298756 
	C140.828003,41.700394 153.245529,42.448669 165.631073,45.387760 
	C165.631073,55.858803 165.631073,66.100052 165.631073,76.902626 
	C158.438461,76.902626 151.446854,76.362396 144.572754,77.030785 
	C134.567276,78.003639 129.061676,83.743156 127.914299,93.773643 
	C127.202316,99.997803 127.197556,106.302856 126.837143,113.315231 
	C133.583847,113.315231 139.666733,113.315224 145.749603,113.315224 
	C151.689285,113.315224 157.628967,113.315231 164.062683,113.315231 
	C161.827515,125.152664 159.709198,136.371170 156.827179,147.795013 
	C146.722946,148.041992 137.382446,148.083649 127.717201,148.168762 
	C127.348610,148.832535 127.304749,149.452850 127.260880,150.073181 
	C127.226730,174.383896 127.192574,198.694595 127.142502,223.739227 
	C127.432236,224.601700 127.737885,224.730270 128.375244,224.916992 
	C129.513885,224.746658 130.320831,224.518173 131.127762,224.289703 
	C152.907196,221.404419 171.669022,211.970688 187.995941,197.590469 
	C209.218277,178.898499 221.143982,155.156677 225.646881,127.171333 
	C226.000000,159.965836 226.000000,192.931671 226.000000,225.948761 
	C151.111832,225.948761 76.223625,225.948761 1.000000,225.948761 
	C1.000000,193.313202 1.000000,160.625259 1.000001,127.468658 
	C2.271766,132.052124 3.393565,137.147583 4.838943,142.149536 
	C16.715599,183.250473 43.246731,209.828857 84.902145,222.062027 
	C85.698410,221.721268 85.808205,221.363235 85.917999,221.005203 
	C85.975487,197.310059 86.032982,173.614899 86.027412,149.185547 
	C85.648102,148.346786 85.331863,148.242233 85.015617,148.137665 
z"/>
<path fill="#FDFEFF" opacity="1.000000" stroke="none" 
	d="
M226.000000,100.531342 
	C224.723679,95.604126 223.560730,90.178497 222.153198,84.817070 
	C210.305283,39.686722 171.688492,6.533715 125.202118,1.349504 
	C158.593231,1.000000 192.186478,1.000000 226.000000,1.000000 
	C226.000000,34.020569 226.000000,67.041626 226.000000,100.531342 
z"/>
<path fill="#FEFEFF" opacity="1.000000" stroke="none" 
	d="
M100.531342,1.000000 
	C95.618263,2.272454 90.156845,3.278300 84.867310,4.859251 
	C39.751793,18.343502 12.216297,48.027672 2.787560,94.295784 
	C2.423542,96.082069 2.066615,97.869797 1.353191,99.828430 
	C1.000000,67.072693 1.000000,34.145393 1.000000,1.000000 
	C34.020573,1.000000 67.041626,1.000000 100.531342,1.000000 
z"/>
<path fill="#0263FF" opacity="1.000000" stroke="none" 
	d="
M128.041931,148.125305 
	C137.382446,148.083649 146.722946,148.041992 156.529694,148.048248 
	C155.273575,148.730637 153.564667,149.866318 151.826523,149.912979 
	C144.222900,150.117157 136.610809,150.005600 128.511612,149.696564 
	C128.028275,148.964798 128.035110,148.545044 128.041931,148.125305 
z"/>
<path fill="#0263FF" opacity="1.000000" stroke="none" 
	d="
M130.919754,224.072235 
	C130.320831,224.518173 129.513885,224.746658 128.361481,224.684372 
	C128.016022,224.393616 128.025406,223.927643 128.025406,223.927643 
	C128.920853,223.903351 129.816299,223.879074 130.919754,224.072235 
z"/>
<path fill="#4280FF" opacity="1.000000" stroke="none" 
	d="
M127.717201,148.168762 
	C128.035110,148.545044 128.028275,148.964798 128.047577,149.698944 
	C128.073715,150.013336 127.668999,150.066315 127.464935,150.069748 
	C127.304749,149.452850 127.348610,148.832535 127.717201,148.168762 
z"/>
<path fill="#005DFF" opacity="1.000000" stroke="none" 
	d="
M85.743225,112.163879 
	C85.809662,112.369720 85.699081,112.733383 85.283440,113.081100 
	C85.150909,112.798828 85.346848,112.551003 85.743225,112.163879 
z"/>
<path fill="#005AFF" opacity="1.000000" stroke="none" 
	d="
M85.148506,148.298401 
	C85.331863,148.242233 85.648102,148.346786 85.941589,148.723511 
	C85.687057,148.839752 85.474579,148.660904 85.148506,148.298401 
z"/>
<path fill="#005AFF" opacity="1.000000" stroke="none" 
	d="
M85.745819,221.149826 
	C85.808205,221.363235 85.698410,221.721268 85.291122,222.029800 
	C85.163132,221.731522 85.356461,221.502899 85.745819,221.149826 
z"/>
<path fill="#4280FF" opacity="1.000000" stroke="none" 
	d="
M127.829880,223.922821 
	C128.025406,223.927643 128.016022,224.393616 128.029785,224.626221 
	C127.737885,224.730270 127.432236,224.601700 127.184998,224.201706 
	C127.243401,223.930267 127.634361,223.918015 127.829880,223.922821 
z"/>
</svg>